HIERARCHY
ROOT Hips
{
  OFFSET 5.72205e-005 65.662 3.42586
  CHANNELS 6 Xposition Yposition Zposition Zrotation Xrotation Yrotation
  JOINT Chest
  {
    OFFSET 0 8.7983 -4.7612
    CHANNELS 6 Xposition Yposition Zposition Zrotation Xrotation Yrotation
    JOINT Chest2
    {
      OFFSET 0 8.0291 0.4195
      CHANNELS 6 Xposition Yposition Zposition Zrotation Xrotation Yrotation
      JOINT Chest3
      {
        OFFSET 0 9.9351 -2.2114
        CHANNELS 6 Xposition Yposition Zposition Zrotation Xrotation Yrotation
        JOINT Neck
        {
          OFFSET 0 22.3885 -0.4656
          CHANNELS 6 Xposition Yposition Zposition Zrotation Xrotation Yrotation
          JOINT Head
          {
            OFFSET -0.0001 12.643 3.4389
            CHANNELS 6 Xposition Yposition Zposition Zrotation Xrotation Yrotation
            End Site
            {
              OFFSET 0.0001 17.6655 0.5274
            }
          }
        }
        JOINT LeftCollar
        {
          OFFSET 2.2603 21.606 7.4023
          CHANNELS 6 Xposition Yposition Zposition Zrotation Xrotation Yrotation
          JOINT LeftShoulder
          {
            OFFSET 13.5163 -1.1332 -5.0146
            CHANNELS 6 Xposition Yposition Zposition Zrotation Xrotation Yrotation
            JOINT LeftElbow
            {
              OFFSET -0.0995 -28.05 -0.2431
              CHANNELS 6 Xposition Yposition Zposition Zrotation Xrotation Yrotation
              JOINT LeftWrist
              {
                OFFSET 0.0679 -23.3996 -0.1402
                CHANNELS 6 Xposition Yposition Zposition Zrotation Xrotation Yrotation
                JOINT LeftFinger1
                {
                  OFFSET 0.7932 -9.069 2.5189
                  CHANNELS 6 Xposition Yposition Zposition Zrotation Xrotation Yrotation
                  JOINT LeftFinger11
                  {
                    OFFSET -0.8272 -3.3923 0.5977
                    CHANNELS 6 Xposition Yposition Zposition Zrotation Xrotation Yrotation
                    JOINT LeftFinger12
                    {
                      OFFSET -0.5649 -2.3158 0.4082
                      CHANNELS 6 Xposition Yposition Zposition Zrotation Xrotation Yrotation
                      End Site
                      {
                        OFFSET -0.4919 -1.6479 0.2673
                      }
                    }
                  }
                }
                JOINT LeftFinger2
                {
                  OFFSET 0.9159 -9.2044 0.2193
                  CHANNELS 6 Xposition Yposition Zposition Zrotation Xrotation Yrotation
                  JOINT LeftFinger21
                  {
                    OFFSET 0.0117 -4.1944 -0.0248
                    CHANNELS 6 Xposition Yposition Zposition Zrotation Xrotation Yrotation
                    JOINT LeftFinger22
                    {
                      OFFSET 0.0071 -2.3249 -0.0142
                      CHANNELS 6 Xposition Yposition Zposition Zrotation Xrotation Yrotation
                      End Site
                      {
                        OFFSET -0.1475 -2.0882 0.0028
                      }
                    }
                  }
                }
                JOINT LeftFinger3
                {
                  OFFSET 0.6113 -8.7231 -2.0637
                  CHANNELS 6 Xposition Yposition Zposition Zrotation Xrotation Yrotation
                  JOINT LeftFinger31
                  {
                    OFFSET -0.1927 -3.8059 -0.2383
                    CHANNELS 6 Xposition Yposition Zposition Zrotation Xrotation Yrotation
                    JOINT LeftFinger32
                    {
                      OFFSET -0.1091 -2.1688 -0.1362
                      CHANNELS 6 Xposition Yposition Zposition Zrotation Xrotation Yrotation
                      End Site
                      {
                        OFFSET -0.2358 -1.9176 -0.0906
                      }
                    }
                  }
                }
                JOINT LeftFinger4
                {
                  OFFSET -0.6151 -8.0947 -3.5641
                  CHANNELS 6 Xposition Yposition Zposition Zrotation Xrotation Yrotation
                  JOINT LeftFinger41
                  {
                    OFFSET -0.4882 -2.341 -0.6462
                    CHANNELS 6 Xposition Yposition Zposition Zrotation Xrotation Yrotation
                    JOINT LeftFinger42
                    {
                      OFFSET -0.3575 -1.7167 -0.4742
                      CHANNELS 6 Xposition Yposition Zposition Zrotation Xrotation Yrotation
                      End Site
                      {
                        OFFSET -0.4187 -1.5237 -0.3496
                      }
                    }
                  }
                }
                JOINT LeftFinger0
                {
                  OFFSET -1.42 -1.8761 1.4223
                  CHANNELS 6 Xposition Yposition Zposition Zrotation Xrotation Yrotation
                  JOINT LeftFinger01
                  {
                    OFFSET -1.1471 -3.4929 2.6334
                    CHANNELS 6 Xposition Yposition Zposition Zrotation Xrotation Yrotation
                    JOINT LeftFinger02
                    {
                      OFFSET -0.823 -2.3 1.6571
                      CHANNELS 6 Xposition Yposition Zposition Zrotation Xrotation Yrotation
                      End Site
                      {
                        OFFSET -0.5822 -1.6914 1.1582
                      }
                    }
                  }
                }
              }
            }
          }
        }
        JOINT RightCollar
        {
          OFFSET -2.2603 21.606 7.4023
          CHANNELS 6 Xposition Yposition Zposition Zrotation Xrotation Yrotation
          JOINT RightShoulder
          {
            OFFSET -13.5187 -1.1334 -5.0155
            CHANNELS 6 Xposition Yposition Zposition Zrotation Xrotation Yrotation
            JOINT RightElbow
            {
              OFFSET 0.0994 -28.0499 -0.2431
              CHANNELS 6 Xposition Yposition Zposition Zrotation Xrotation Yrotation
              JOINT RightWrist
              {
                OFFSET -0.0679 -23.3996 -0.1402
                CHANNELS 6 Xposition Yposition Zposition Zrotation Xrotation Yrotation
                JOINT RightFinger1
                {
                  OFFSET -0.7932 -9.0691 2.5189
                  CHANNELS 6 Xposition Yposition Zposition Zrotation Xrotation Yrotation
                  JOINT RightFinger11
                  {
                    OFFSET 0.8272 -3.3923 0.5977
                    CHANNELS 6 Xposition Yposition Zposition Zrotation Xrotation Yrotation
                    JOINT RightFinger12
                    {
                      OFFSET 0.565 -2.3158 0.4082
                      CHANNELS 6 Xposition Yposition Zposition Zrotation Xrotation Yrotation
                      End Site
                      {
                        OFFSET 0.4919 -1.6479 0.2673
                      }
                    }
                  }
                }
                JOINT RightFinger2
                {
                  OFFSET -0.916 -9.2044 0.2193
                  CHANNELS 6 Xposition Yposition Zposition Zrotation Xrotation Yrotation
                  JOINT RightFinger21
                  {
                    OFFSET -0.0117 -4.1944 -0.0248
                    CHANNELS 6 Xposition Yposition Zposition Zrotation Xrotation Yrotation
                    JOINT RightFinger22
                    {
                      OFFSET -0.0071 -2.3249 -0.0142
                      CHANNELS 6 Xposition Yposition Zposition Zrotation Xrotation Yrotation
                      End Site
                      {
                        OFFSET 0.1475 -2.0882 0.0028
                      }
                    }
                  }
                }
                JOINT RightFinger3
                {
                  OFFSET -0.6113 -8.7231 -2.0637
                  CHANNELS 6 Xposition Yposition Zposition Zrotation Xrotation Yrotation
                  JOINT RightFinger31
                  {
                    OFFSET 0.1927 -3.8059 -0.2383
                    CHANNELS 6 Xposition Yposition Zposition Zrotation Xrotation Yrotation
                    JOINT RightFinger32
                    {
                      OFFSET 0.1091 -2.1688 -0.1362
                      CHANNELS 6 Xposition Yposition Zposition Zrotation Xrotation Yrotation
                      End Site
                      {
                        OFFSET 0.2358 -1.9176 -0.0906
                      }
                    }
                  }
                }
                JOINT RightFinger4
                {
                  OFFSET 0.6151 -8.0947 -3.564
                  CHANNELS 6 Xposition Yposition Zposition Zrotation Xrotation Yrotation
                  JOINT RightFinger41
                  {
                    OFFSET 0.4882 -2.341 -0.6462
                    CHANNELS 6 Xposition Yposition Zposition Zrotation Xrotation Yrotation
                    JOINT RightFinger42
                    {
                      OFFSET 0.3574 -1.7166 -0.4742
                      CHANNELS 6 Xposition Yposition Zposition Zrotation Xrotation Yrotation
                      End Site
                      {
                        OFFSET 0.4187 -1.5237 -0.3496
                      }
                    }
                  }
                }
                JOINT RightFinger0
                {
                  OFFSET 1.4199 -1.8761 1.4221
                  CHANNELS 6 Xposition Yposition Zposition Zrotation Xrotation Yrotation
                  JOINT RightFinger01
                  {
                    OFFSET 1.1472 -3.4929 2.6336
                    CHANNELS 6 Xposition Yposition Zposition Zrotation Xrotation Yrotation
                    JOINT RightFinger02
                    {
                      OFFSET 0.8229 -2.3 1.6571
                      CHANNELS 6 Xposition Yposition Zposition Zrotation Xrotation Yrotation
                      End Site
                      {
                        OFFSET 0.5822 -1.6914 1.1582
                      }
                    }
                  }
                }
              }
            }
          }
        }
      }
    }
  }
  JOINT RightHip
  {
    OFFSET -9.412 3.9771 -0.7758
    CHANNELS 6 Xposition Yposition Zposition Zrotation Xrotation Yrotation
    JOINT RightKnee
    {
      OFFSET -0.7531 -40.938 0
      CHANNELS 6 Xposition Yposition Zposition Zrotation Xrotation Yrotation
      JOINT RightAnkle
      {
        OFFSET 0 -40.1986 0
        CHANNELS 6 Xposition Yposition Zposition Zrotation Xrotation Yrotation
        JOINT RightToe
        {
          OFFSET 0 -4.4182 9.239
          CHANNELS 6 Xposition Yposition Zposition Zrotation Xrotation Yrotation
          End Site
          {
            OFFSET 0 0 6.1981
          }
        }
      }
    }
  }
  JOINT LeftHip
  {
    OFFSET 9.4119 3.9773 -0.7758
    CHANNELS 6 Xposition Yposition Zposition Zrotation Xrotation Yrotation
    JOINT LeftKnee
    {
      OFFSET 0.7532 -40.9383 0
      CHANNELS 6 Xposition Yposition Zposition Zrotation Xrotation Yrotation
      JOINT LeftAnkle
      {
        OFFSET 0 -40.1986 0
        CHANNELS 6 Xposition Yposition Zposition Zrotation Xrotation Yrotation
        JOINT LeftToe
        {
          OFFSET 0 -4.4182 9.239
          CHANNELS 6 Xposition Yposition Zposition Zrotation Xrotation Yrotation
          End Site
          {
            OFFSET 0 0 6.1981
          }
        }
      }
    }
  }
}
MOTION
Frames:	4
Frame Time:	0.0333333
5.72205e-005 65.662 3.42586 0 0 -0 0 8.7983 -4.7612 0 0 -0 0 8.0291 0.4195 0 0 -0 0 9.9351 -2.2114 0 0 -0 0 22.3885 -0.4656 0 0 -0 -0.0001 12.643 3.4389 0 0 -0 2.2603 21.606 7.4023 0 0 -12.5014 13.5163 -1.1332 -5.0146 88.1196 14.2451 10.6914 -0.0995 -28.05 -0.2431 -0.00160068 -0.00239207 0.000740045 0.0679 -23.3996 -0.1402 -8.4365e-005 7.00714e-005 -9.52055e-007 0.7932 -9.069 2.5189 9.93923e-017 -1.98785e-016 -1.59028e-015 -0.8272 -3.3923 0.5977 9.93923e-017 -5.96354e-016 -1.59028e-015 -0.5649 -2.3158 0.4082 -9.93923e-017 -5.96354e-016 -1.59028e-015 0.9159 -9.2044 0.2193 9.93923e-017 -1.98785e-016 -1.59028e-015 0.0117 -4.1944 -0.0248 -0.0128176 0.00232552 8.52707e-005 0.0071 -2.3249 -0.0142 9.93923e-017 5.96354e-016 -0 0.6113 -8.7231 -2.0637 9.93923e-017 -1.98785e-016 -1.59028e-015 -0.1927 -3.8059 -0.2383 -0.0160551 0.00299681 0.000857156 -0.1091 -2.1688 -0.1362 -2.48481e-016 0 3.18055e-015 -0.6151 -8.0947 -3.5641 9.93923e-017 -1.98785e-016 -1.59028e-015 -0.4882 -2.341 -0.6462 -0.0125865 0.0031206 0.00282719 -0.3575 -1.7167 -0.4742 0 1.98785e-016 -0 -1.42 -1.8761 1.4223 9.93923e-017 -1.98785e-016 -1.59028e-015 -1.1471 -3.4929 2.6334 9.93923e-017 -5.96354e-016 -1.59028e-015 -0.823 -2.3 1.6571 -9.93923e-017 -5.96354e-016 -1.59028e-015 -2.2603 21.606 7.4023 -0.865644 0.16582 7.03859 -13.5187 -1.1334 -5.0155 -88.0329 10.2057 -10.5567 0.0994 -28.0499 -0.2431 0.0015593 -0.00248883 -0.000788628 -0.0679 -23.3996 -0.1402 7.87605e-005 4.10553e-005 1.24965e-005 -0.7932 -9.0691 2.5189 -3.97569e-016 -7.95139e-016 3.18055e-015 0.8272 -3.3923 0.5977 -1.98785e-016 -3.97569e-016 3.18055e-015 0.565 -2.3158 0.4082 -1.98785e-016 0 3.18055e-015 -0.916 -9.2044 0.2193 -3.97569e-016 -7.95139e-016 3.18055e-015 -0.0117 -4.1944 -0.0248 0.0129473 0.00231697 -8.70038e-005 -0.0071 -2.3249 -0.0142 9.93923e-017 -7.95139e-016 1.59028e-015 -0.6113 -8.7231 -2.0637 -3.97569e-016 -7.95139e-016 3.18055e-015 0.1927 -3.8059 -0.2383 0.0163314 0.00303369 -0.000872333 0.1091 -2.1688 -0.1362 3.97569e-016 7.95139e-016 -3.18055e-015 0.6151 -8.0947 -3.564 -3.97569e-016 -7.95139e-016 3.18055e-015 0.4882 -2.341 -0.6462 0.0145763 0.00367772 -0.00326275 0.3574 -1.7166 -0.4742 9.93923e-017 -3.97569e-016 -0 1.4199 -1.8761 1.4221 -3.97569e-016 -7.95139e-016 3.18055e-015 1.1472 -3.4929 2.6336 -1.98785e-016 -3.97569e-016 3.18055e-015 0.8229 -2.3 1.6571 -1.98785e-016 0 3.18055e-015 -9.412 3.9771 -0.7758 3.42482 1.32465 -0.0626183 -0.7531 -40.938 0 0.000117508 0.717283 0.000978199 0 -40.1986 0 -3.4257 -2.04197 -0.0604716 8.88178e-016 -4.4182 9.239 6.47761e-025 0 -0 9.4119 3.9773 -0.7758 -3.42483 1.34017 0.0627307 0.7532 -40.9383 -2.22045e-016 -0.000193936 0.682302 -0.0013703 -8.88179e-016 -40.1986 0 3.42574 -2.02253 0.0595886 -8.88178e-016 -4.4182 9.239 -8.45714e-024 0 -7.40531e-025 
-7.05714 22.7972 2.39181 0.0515982 24.0028 -178.25 -8.88178e-016 8.7983 -4.7612 -1.6499 1.26157 -1.27559 1.77636e-015 8.0291 0.4195 -3.27252 2.55906 -2.51525 0 9.9351 -2.2114 -3.27252 2.55905 -2.51525 0 22.3885 -0.4656 1.48871e-005 -1.01611e-005 1.06992e-005 -0.0001 12.643 3.4389 -2.42517e-014 -3.18055e-015 8.74653e-015 2.2603 21.606 7.4023 -25.6393 -7.43891 -16.4516 13.5163 -1.1332 -5.0146 85.9577 -14.2826 33.1742 -0.0995 -28.05 -0.2431 -80.9157 -47.4755 -45.5639 0.0679 -23.3996 -0.1402 -46.9846 34.3792 33.548 0.7932 -9.06901 2.5189 -2.53713e-006 -1.34356e-006 2.70788e-007 -0.827199 -3.3923 0.5977 -3.18055e-015 5.56597e-015 -6.36111e-015 -0.5649 -2.3158 0.4082 5.83108e-006 1.79454e-006 -9.73673e-007 0.915899 -9.20441 0.2193 -2.53713e-006 -1.34356e-006 2.70788e-007 0.0117 -4.1944 -0.0248 -0.0128406 0.00233439 9.28859e-005 0.0071 -2.3249 -0.0142 -6.45128e-006 -8.33306e-006 -1.35564e-005 0.6113 -8.72311 -2.0637 -2.53713e-006 -1.34356e-006 2.70788e-007 -0.1927 -3.8059 -0.2383 -0.0160629 0.00300795 0.000859442 -0.1091 -2.1688 -0.1362 7.37908e-007 7.16855e-007 -1.50228e-006 -0.6151 -8.09471 -3.5641 -2.53713e-006 -1.34356e-006 2.70788e-007 -0.4882 -2.341 -0.6462 -0.0125651 0.00311848 0.00282177 -0.3575 -1.7167 -0.4742 5.04728e-006 1.09039e-005 5.51641e-006 -1.42 -1.8761 1.4223 -2.53713e-006 -1.34356e-006 2.70788e-007 -1.1471 -3.4929 2.6334 -3.18055e-015 5.56597e-015 -6.36111e-015 -0.822999 -2.3 1.6571 5.83108e-006 1.79454e-006 -9.73673e-007 -2.2603 21.606 7.4023 16.3962 -8.05285 7.81608 -13.5187 -1.1334 -5.0155 -86.0229 -35.6766 -30.3838 0.0993999 -28.0499 -0.2431 89.4056 -55.4482 59.2345 -0.0679 -23.3996 -0.1402 24.4267 1.63743 -34.1632 -0.793199 -9.06911 2.5189 7.41867e-006 -1.60051e-007 6.65677e-006 0.827199 -3.3923 0.5977 -6.36111e-015 -3.18055e-015 -0 0.565 -2.3158 0.4082 2.13566e-008 -8.41446e-006 2.76834e-006 -0.915999 -9.20441 0.2193 7.41867e-006 -1.60051e-007 6.65677e-006 -0.0117 -4.1944 -0.0248 0.0128819 0.00230138 -7.6125e-005 -0.00709999 -2.3249 -0.0142 3.18055e-015 -3.18055e-015 -0 -0.6113 -8.72311 -2.0637 7.41867e-006 -1.60051e-007 6.65677e-006 0.1927 -3.8059 -0.2383 0.0163385 0.00303712 -0.000874747 0.1091 -2.1688 -0.1362 6.36111e-015 -3.53454e-006 9.54166e-015 0.6151 -8.09471 -3.564 7.41867e-006 -1.60051e-007 6.65677e-006 0.4882 -2.341 -0.6462 0.0147028 0.00370537 -0.00329082 0.3574 -1.7166 -0.4742 2.22639e-014 3.02983e-007 1.59028e-014 1.4199 -1.8761 1.4221 7.41867e-006 -1.60051e-007 6.65677e-006 1.1472 -3.4929 2.6336 -6.36111e-015 -3.18055e-015 -0 0.822899 -2.3 1.6571 2.13566e-008 -8.41446e-006 2.76834e-006 -9.412 3.9771 -0.7758 -15.1321 26.654 7.34307 -0.7531 -40.938 8.88178e-016 160.25 79.9818 -117.702 0 -40.1986 0 2.00823 41.4879 -40.8898 1.77636e-015 -4.4182 9.23901 3.0882e-006 -3.02559e-006 1.5105e-006 9.4119 3.9773 -0.7758 114.685 -48.3521 82.8713 0.7532 -40.9383 5.32907e-015 176.064 62.0476 137.578 0 -40.1986 -3.55271e-015 14.6072 13.7613 25.5914 0 -4.4182 9.239 1.39189e-006 -5.40515e-006 4.31803e-006 
-7.06064 22.7304 2.39898 0.053468 25.0541 -178.246 -8.88178e-016 8.7983 -4.7612 -1.619 1.79189 -1.28522 0 8.0291 0.4195 -3.19976 3.61895 -2.52114 1.33227e-015 9.9351 -2.2114 -3.19976 3.61895 -2.52114 -4.44089e-016 22.3885 -0.4656 -0.201204 -0.115404 -0.152281 -0.0001 12.643 3.4389 2.90797e-006 -0.308038 8.89622e-007 2.2603 21.606 7.4023 -24.865 -8.51026 -17.6134 13.5163 -1.1332 -5.0146 85.9577 -14.2826 33.1742 -0.0995 -28.05 -0.2431 -78.218 -47.3224 -43.5078 0.0679 -23.3996 -0.1402 -47.0598 32.9968 33.0009 0.7932 -9.069 2.5189 -1.59028e-014 -7.95139e-016 7.95139e-016 -0.8272 -3.3923 0.5977 -1.44115e-006 9.17769e-006 -3.05537e-006 -0.5649 -2.3158 0.4082 -1.04873e-005 -6.45771e-006 -5.33571e-006 0.9159 -9.2044 0.2193 -1.59028e-014 -7.95139e-016 7.95139e-016 0.0117 -4.1944 -0.0248 -0.0127967 0.00232789 7.1812e-005 0.0071 -2.3249 -0.0142 3.90788e-006 8.73137e-006 7.78958e-006 0.6113 -8.7231 -2.0637 -1.59028e-014 -7.95139e-016 7.95139e-016 -0.1927 -3.8059 -0.2383 -0.0160714 0.00300251 0.000844614 -0.1091 -2.1688 -0.1362 -5.09121e-006 6.83604e-006 -5.46979e-007 -0.6151 -8.0947 -3.5641 -1.59028e-014 -7.95139e-016 7.95139e-016 -0.4882 -2.341 -0.6462 -0.0126079 0.00313909 0.00282022 -0.3575 -1.7167 -0.4742 -1.44137e-006 -1.11286e-006 -3.05536e-006 -1.42 -1.8761 1.4223 -1.59028e-014 -7.95139e-016 7.95139e-016 -1.1471 -3.4929 2.6334 -1.44115e-006 9.17769e-006 -3.05537e-006 -0.823 -2.3 1.6571 -1.04873e-005 -6.45771e-006 -5.33571e-006 -2.2603 21.606 7.4023 15.8243 -9.6789 8.62183 -13.5187 -1.1334 -5.0155 -86.023 -35.6767 -30.3838 0.0994 -28.0499 -0.2431 88.1206 -55.4892 58.1501 -0.0679 -23.3996 -0.1402 24.4017 1.22103 -34.4182 -0.7932 -9.0691 2.5189 2.27311e-006 5.79369e-006 -1.49956e-006 0.8272 -3.3923 0.5977 6.36111e-015 -3.18055e-015 -3.18055e-015 0.565 -2.3158 0.4082 0 0 -3.18055e-015 -0.916 -9.2044 0.2193 2.27311e-006 5.79369e-006 -1.49956e-006 -0.0117 -4.1944 -0.0248 0.0129041 0.00230295 -7.72144e-005 -0.0071 -2.3249 -0.0142 -3.18055e-015 -3.18055e-015 -6.36111e-015 -0.6113 -8.7231 -2.0637 2.27311e-006 5.79369e-006 -1.49956e-006 0.1927 -3.8059 -0.2383 0.0162853 0.00302597 -0.000870257 0.1091 -2.1688 -0.1362 7.39878e-006 -4.91206e-007 6.682e-006 0.6151 -8.0947 -3.564 2.27311e-006 5.79369e-006 -1.49956e-006 0.4882 -2.341 -0.6462 0.0146005 0.00368076 -0.00326439 0.3574 -1.7166 -0.4742 -9.54166e-015 -3.18055e-015 -0 1.4199 -1.8761 1.4221 2.27311e-006 5.79369e-006 -1.49956e-006 1.1472 -3.4929 2.6336 6.36111e-015 -3.18055e-015 -3.18055e-015 0.8229 -2.3 1.6571 0 0 -3.18055e-015 -9.412 3.9771 -0.7758 -15.3589 27.5605 7.6318 -0.7531 -40.938 0 160.843 79.7698 -118.296 0 -40.1986 1.77636e-015 2.00564 41.4795 -40.8878 -1.77636e-015 -4.4182 9.239 0 3.18055e-015 -0 9.4119 3.9773 -0.7758 114.153 -48.0768 82.3376 0.7532 -40.9383 0 176.118 61.7364 137.578 -7.10543e-015 -40.1986 0 13.6595 16.0531 26.0238 0 -4.4182 9.239 5.67036e-006 2.64075e-006 -2.30107e-006 
-7.06417 22.6654 2.40802 0.0552951 26.1069 -178.243 -8.88178e-016 8.7983 -4.7612 -1.58714 2.32693 -1.29481 8.88178e-016 8.0291 0.4195 -3.12513 4.68832 -2.52775 -1.33227e-015 9.9351 -2.2114 -3.12513 4.68832 -2.52775 1.33227e-015 22.3885 -0.4656 -0.402791 -0.230317 -0.30502 -0.0001 12.643 3.4389 -8.15886e-007 -0.616247 2.24455e-007 2.2603 21.606 7.4023 -24.1078 -9.60084 -18.768 13.5163 -1.1332 -5.0146 85.9577 -14.2826 33.1742 -0.0995 -28.05 -0.2431 -75.5283 -47.1032 -41.4634 0.0679 -23.3996 -0.1402 -47.1497 31.6111 32.4585 0.7932 -9.06901 2.5189 1.27222e-014 -4.77083e-015 3.18055e-015 -0.8272 -3.3923 0.5977 3.18055e-015 7.95139e-016 2.38542e-015 -0.5649 -2.3158 0.4082 3.61536e-006 5.40079e-006 4.61741e-006 0.9159 -9.20441 0.2193 1.27222e-014 -4.77083e-015 3.18055e-015 0.0117 -4.1944 -0.0248 -0.0128513 0.00233691 9.39345e-005 0.0071 -2.3249 -0.0142 -1.43352e-006 -1.34497e-006 -3.05784e-006 0.6113 -8.72311 -2.0637 1.27222e-014 -4.77083e-015 3.18055e-015 -0.1927 -3.8059 -0.2383 -0.016006 0.00299709 0.000862532 -0.1091 -2.1688 -0.1362 -3.18055e-015 2.38542e-015 3.97569e-015 -0.6151 -8.09471 -3.5641 1.27222e-014 -4.77083e-015 3.18055e-015 -0.4882 -2.341 -0.6462 -0.0126287 0.00314114 0.00284903 -0.3575 -1.7167 -0.4742 -1.49803e-006 -3.16743e-006 2.99628e-006 -1.42 -1.8761 1.4223 1.27222e-014 -4.77083e-015 3.18055e-015 -1.1471 -3.4929 2.6334 3.18055e-015 7.95139e-016 2.38542e-015 -0.823 -2.3 1.6571 3.61536e-006 5.40079e-006 4.61741e-006 -2.2603 21.606 7.4023 15.2703 -11.3204 9.41896 -13.5187 -1.1334 -5.0155 -86.0229 -35.6766 -30.3838 0.0994 -28.0499 -0.2431 86.8326 -55.5163 57.063 -0.0679 -23.3996 -0.1402 24.3747 0.804644 -34.6736 -0.7932 -9.0691 2.5189 -9.54166e-015 -3.18055e-015 -3.18055e-015 0.8272 -3.3923 0.5977 2.2714e-006 5.23314e-006 -4.26176e-006 0.565 -2.3158 0.4082 -3.18055e-015 0 -0 -0.916 -9.2044 0.2193 -9.54166e-015 -3.18055e-015 -3.18055e-015 -0.0117 -4.1944 -0.0248 0.0129432 0.00230761 -9.11112e-005 -0.0071 -2.3249 -0.0142 -3.18055e-015 -6.36111e-015 -0 -0.6113 -8.7231 -2.0637 -9.54166e-015 -3.18055e-015 -3.18055e-015 0.1927 -3.8059 -0.2383 0.016353 0.00303522 -0.000879029 0.1091 -2.1688 -0.1362 1.27222e-014 -6.36111e-015 -3.18055e-015 0.6151 -8.0947 -3.564 -9.54166e-015 -3.18055e-015 -3.18055e-015 0.4882 -2.341 -0.6462 0.0146538 0.00370278 -0.0032872 0.3574 -1.7166 -0.4742 -9.54166e-015 -3.18055e-015 3.18055e-015 1.4199 -1.8761 1.4221 -9.54166e-015 -3.18055e-015 -3.18055e-015 1.1472 -3.4929 2.6336 2.2714e-006 5.23314e-006 -4.26176e-006 0.8229 -2.3 1.6571 -3.18055e-015 0 -0 -9.412 3.9771 -0.7758 -15.593 28.4668 7.92742 -0.7531 -40.938 0 161.413 79.5565 -118.866 0 -40.1986 0 2.0028 41.4709 -40.8858 -1.77636e-015 -4.4182 9.239 2.64834e-031 3.18055e-015 -4.77083e-015 9.4119 3.9773 -0.7758 113.647 -47.8038 81.8277 0.7532 -40.9383 1.77636e-015 176.173 61.4149 137.583 0 -40.1986 0 12.6704 18.358 26.5089 0 -4.4182 9.239 2.22639e-014 -1.90833e-014 6.36111e-015 
